<?xml version="1.0" standalone="no"?>
<!DOCTYPE svg PUBLIC "-//W3C//DTD SVG 20010904//EN"
 "http://www.w3.org/TR/2001/REC-SVG-20010904/DTD/svg10.dtd">
<svg version="1.0" xmlns="http://www.w3.org/2000/svg"
 width="50px" height="50px" viewBox="0 0 1280.000000 1144.000000"
 preserveAspectRatio="xMidYMid meet">
<metadata>
Created by potrace 1.15, written by Peter Selinger 2001-2017
</metadata>
<g transform="translate(0.000000,1144.000000) scale(0.100000,-0.100000)"
fill="#C0C0C0" stroke="none">
<path d="M1652 11428 c-625 -78 -1116 -566 -1428 -1418 -107 -291 -165 -729
-206 -1555 -16 -330 -16 -1621 0 -2015 57 -1355 160 -2264 303 -2669 158 -451
455 -762 852 -892 204 -68 33 -62 2197 -68 l1965 -6 45 -26 c25 -15 119 -64
210 -109 132 -66 2884 -1499 4460 -2322 397 -208 421 -214 485 -128 30 40 33
91 8 137 -12 22 -485 389 -1481 1150 -804 615 -1508 1153 -1563 1195 l-100 78
483 0 c1528 0 2856 97 3383 247 150 43 215 72 345 158 168 111 311 244 433
402 124 162 301 485 346 633 54 175 93 415 136 835 9 90 34 476 45 700 64
1352 14 3309 -111 4285 -21 166 -53 342 -70 387 -8 21 -7 25 1 16 33 -32 90
-403 124 -808 126 -1472 126 -3717 0 -4785 -62 -523 -108 -684 -283 -992 -182
-319 -351 -508 -618 -687 -102 -68 -169 -101 -283 -137 -518 -163 -1742 -259
-3402 -265 -269 -1 -488 -3 -488 -4 0 -2 43 -35 95 -74 l94 -71 353 0 c1076 0
2284 53 2888 125 403 49 682 105 843 171 73 29 159 83 152 94 -3 5 15 23 40
40 25 17 45 29 45 26 0 -3 -18 -18 -40 -32 -22 -15 -38 -29 -36 -31 6 -6 92
53 102 69 5 7 2 8 -7 3 -8 -5 -5 1 5 13 21 25 36 31 16 7 -20 -24 5 -17 26 7
10 12 13 18 7 14 -22 -13 -14 -1 19 30 32 28 32 28 9 1 -14 -15 -20 -27 -15
-27 12 0 174 162 174 174 0 5 -12 -1 -27 -15 l-28 -24 24 27 c14 16 27 26 29
23 7 -7 42 25 42 38 0 5 -8 3 -17 -4 -15 -11 -14 -10 1 9 21 24 32 29 20 10
-5 -9 -2 -9 9 1 19 15 23 36 5 25 -7 -4 -8 -3 -4 5 4 6 11 9 16 6 5 -3 27 22
50 55 47 69 60 98 40 85 -9 -5 -11 -4 -6 4 4 6 11 9 16 6 10 -6 95 141 156
270 24 53 56 138 69 188 108 400 169 1176 183 2292 23 1758 -75 3485 -217
3851 -35 89 -99 206 -110 199 -5 -2 -15 3 -22 13 -13 15 -12 16 4 3 9 -7 17
-9 17 -3 0 14 -26 33 -34 25 -4 -4 -4 -1 -1 8 3 9 -5 25 -20 39 -14 13 -52 78
-85 144 -69 142 -128 223 -240 329 -279 267 -723 424 -1290 457 -96 5 -902 14
-1790 20 -1808 12 -3756 25 -5665 40 -1447 11 -1581 11 -1683 -2z m10838
-1128 c6 -11 8 -20 6 -20 -3 0 -10 9 -16 20 -6 11 -8 20 -6 20 3 0 10 -9 16
-20z m44 -86 c3 -8 2 -12 -4 -9 -6 3 -10 10 -10 16 0 14 7 11 14 -7z m26 -59
c0 -5 -5 -3 -10 5 -5 8 -10 20 -10 25 0 6 5 3 10 -5 5 -8 10 -19 10 -25z m20
-60 c0 -5 -5 -3 -10 5 -5 8 -10 20 -10 25 0 6 5 3 10 -5 5 -8 10 -19 10 -25z
m19 -75 c0 -9 -4 -8 -9 5 -5 11 -9 27 -9 35 0 9 4 8 9 -5 5 -11 9 -27 9 -35z
m19 -110 c0 -22 -1 -22 -8 5 -4 17 -8 39 -8 50 0 16 2 15 8 -5 4 -14 8 -36 8
-50z m20 -140 c0 -16 -3 -11 -9 15 -4 22 -8 51 -7 65 0 16 3 11 9 -15 4 -22 8
-51 7 -65z m20 -160 c0 -16 -3 -11 -9 15 -4 22 -8 51 -7 65 0 16 3 11 9 -15 4
-22 8 -51 7 -65z m20 -190 c-1 -28 -2 -25 -8 15 -5 28 -8 66 -8 85 1 28 2 25
8 -15 5 -27 8 -66 8 -85z m20 -220 c-1 -28 -2 -25 -8 15 -5 28 -8 68 -8 90 1
35 2 33 8 -15 5 -30 8 -71 8 -90z m9 -192 c-2 -18 -4 -4 -4 32 0 36 2 50 4 33
2 -18 2 -48 0 -65z m10 -115 c-2 -16 -4 -3 -4 27 0 30 2 43 4 28 2 -16 2 -40
0 -55z m20 -333 c0 -60 -1 -57 -8 25 -4 50 -7 119 -6 155 0 60 1 57 8 -25 4
-49 7 -119 6 -155z m10 -287 c-2 -27 -3 -5 -3 47 0 52 1 74 3 48 2 -27 2 -69
0 -95z m10 -215 c-2 -29 -3 -6 -3 52 0 58 1 81 3 53 2 -29 2 -77 0 -105z m10
-440 c-1 -51 -3 -12 -3 87 0 99 2 141 3 93 2 -48 2 -129 0 -180z m10 -470 c-1
-68 -3 -15 -3 117 0 132 2 187 3 123 2 -64 2 -172 0 -240z m0 -930 c-1 -62 -3
-12 -3 112 0 124 2 174 3 113 2 -62 2 -164 0 -225z m-10 -375 c-1 -43 -3 -8
-3 77 0 85 2 120 3 78 2 -43 2 -113 0 -155z m-10 -330 c-2 -27 -3 -5 -3 47 0
52 1 74 3 48 2 -27 2 -69 0 -95z m-10 -175 c-2 -24 -4 -5 -4 42 0 47 2 66 4
43 2 -24 2 -62 0 -85z m-12 -238 c-4 -66 -10 -119 -12 -116 -3 3 -2 59 2 126
4 67 9 119 12 116 3 -2 2 -59 -2 -126z m-20 -275 c-4 -47 -10 -84 -12 -81 -3
2 -2 43 2 91 4 47 10 84 12 81 3 -2 2 -43 -2 -91z m-18 -182 c-3 -10 -5 -2 -5
17 0 19 2 27 5 18 2 -10 2 -26 0 -35z m-10 -75 c-2 -13 -4 -5 -4 17 -1 22 1
32 4 23 2 -10 2 -28 0 -40z m-10 -95 c-3 -10 -5 -4 -5 12 0 17 2 24 5 18 2 -7
2 -21 0 -30z m-10 -70 c-3 -10 -5 -2 -5 17 0 19 2 27 5 18 2 -10 2 -26 0 -35z
m-12 -98 c-4 -25 -9 -44 -12 -41 -2 2 -1 25 2 51 4 25 9 44 12 41 2 -2 1 -25
-2 -51z m-18 -97 c-3 -8 -6 -5 -6 6 -1 11 2 17 5 13 3 -3 4 -12 1 -19z m-10
-50 c-3 -7 -5 -2 -5 12 0 14 2 19 5 13 2 -7 2 -19 0 -25z m-13 -62 c-3 -15 -8
-25 -11 -23 -2 3 -1 17 3 31 3 15 8 25 11 23 2 -3 1 -17 -3 -31z m-17 -68 c-3
-8 -6 -5 -6 6 -1 11 2 17 5 13 3 -3 4 -12 1 -19z m-26 -89 c-5 -13 -10 -19
-10 -12 -1 15 10 45 15 40 3 -2 0 -15 -5 -28z m-30 -76 c-11 -21 -20 -35 -21
-31 0 12 33 78 38 74 2 -2 -6 -21 -17 -43z m-28 -58 c-3 -9 -8 -14 -10 -11 -3
3 -2 9 2 15 9 16 15 13 8 -4z m-20 -40 c-3 -9 -8 -14 -10 -11 -3 3 -2 9 2 15
9 16 15 13 8 -4z m-20 -40 c-3 -9 -8 -14 -10 -11 -3 3 -2 9 2 15 9 16 15 13 8
-4z m-28 -55 c-9 -16 -18 -30 -21 -30 -2 0 2 14 11 30 9 17 18 30 21 30 2 0
-2 -13 -11 -30z m-32 -55 c-3 -9 -8 -14 -10 -11 -3 3 -2 9 2 15 9 16 15 13 8
-4z m-70 -115 c-9 -17 -28 -43 -41 -58 -13 -15 -6 -1 14 31 38 59 58 79 27 27z
m-493 -495 c0 -2 -10 -9 -22 -15 -22 -11 -22 -10 -4 4 21 17 26 19 26 11z
m-130 -75 c-8 -5 -19 -10 -25 -10 -5 0 -3 5 5 10 8 5 20 10 25 10 6 0 3 -5 -5
-10z m-55 -20 c-27 -12 -43 -12 -25 0 8 5 22 9 30 9 10 0 8 -3 -5 -9z m-60
-20 c-11 -5 -27 -9 -35 -9 -9 0 -8 4 5 9 11 5 27 9 35 9 9 0 8 -4 -5 -9z m-56
-14 c-2 -2 -17 -6 -34 -10 -22 -5 -26 -4 -15 4 14 9 59 15 49 6z m-99 -26
c-14 -4 -34 -8 -45 -8 -16 0 -15 2 5 8 14 4 34 8 45 8 16 0 15 -2 -5 -8z
m-100 -20 c-14 -4 -34 -8 -45 -8 -16 0 -15 2 5 8 14 4 34 8 45 8 16 0 15 -2
-5 -8z m-105 -20 c-16 -4 -41 -8 -55 -8 -22 0 -22 1 5 8 17 4 41 8 55 8 22 0
22 -1 -5 -8z m-130 -20 c-16 -4 -41 -8 -55 -8 -22 0 -22 1 5 8 17 4 41 8 55 8
22 0 22 -1 -5 -8z m-155 -21 c-25 -4 -56 -7 -70 -7 -38 1 37 15 80 15 32 0 31
0 -10 -8z m-142 -16 c-10 -2 -26 -2 -35 0 -10 3 -2 5 17 5 19 0 27 -2 18 -5z
m-70 -10 c-10 -2 -28 -2 -40 0 -13 2 -5 4 17 4 22 1 32 -1 23 -4z m-125 -10
c-13 -2 -35 -2 -50 0 -16 2 -5 4 22 4 28 0 40 -2 28 -4z m-100 -10 c-13 -2
-33 -2 -45 0 -13 2 -3 4 22 4 25 0 35 -2 23 -4z m-173 -13 c-36 -4 -87 -7
-115 -7 l-50 0 60 7 c33 4 85 7 115 7 l55 0 -65 -7z m-257 -17 c-18 -2 -48 -2
-65 0 -18 2 -4 4 32 4 36 0 50 -2 33 -4z m-135 -10 c-21 -2 -55 -2 -75 0 -21
2 -4 4 37 4 41 0 58 -2 38 -4z m-235 -10 c-23 -2 -64 -2 -90 0 -26 2 -7 3 42
3 50 0 71 -1 48 -3z m-195 -10 c-26 -2 -71 -2 -100 0 -29 2 -8 3 47 3 55 0 79
-1 53 -3z m-340 -10 c-42 -2 -114 -2 -160 0 -46 1 -11 3 77 3 88 0 125 -2 83
-3z m-360 -10 c-60 -2 -156 -2 -215 0 -60 1 -11 3 107 3 118 0 167 -2 108 -3z"/>
<path d="M1325 2815 c11 -8 25 -13 33 -10 7 2 11 1 8 -4 -8 -13 146 -80 253
-110 l96 -26 1934 -3 c1064 -1 1932 0 1929 3 -2 3 -853 6 -1889 8 l-1884 2
1865 5 1865 5 -112 58 -111 57 -1914 0 c-1779 0 -1987 3 -2073 26 -20 5 -20 5
0 -11z m105 -35 c19 -11 31 -19 25 -19 -5 0 -26 8 -45 19 -19 11 -30 19 -25
19 6 0 26 -8 45 -19z m70 -30 c8 -5 11 -10 5 -10 -5 0 -17 5 -25 10 -8 5 -10
10 -5 10 6 0 17 -5 25 -10z m60 -20 c18 -12 2 -12 -25 0 -13 6 -15 9 -5 9 8 0
22 -4 30 -9z m75 -20 c13 -5 14 -9 5 -9 -8 0 -24 4 -35 9 -13 5 -14 9 -5 9 8
0 24 -4 35 -9z m68 -17 c-7 -2 -19 -2 -25 0 -7 3 -2 5 12 5 14 0 19 -2 13 -5z
m60 -10 c-7 -2 -21 -2 -30 0 -10 3 -4 5 12 5 17 0 24 -2 18 -5z"/>
<path d="M10499 167 c-14 -10 2 -22 105 -76 67 -35 119 -61 116 -58 -15 15
-194 147 -199 147 -3 0 -13 -6 -22 -13z m106 -60 c6 -6 -9 1 -32 13 -24 13
-43 28 -43 32 0 5 -5 6 -12 2 -7 -4 -8 -3 -4 4 7 11 54 -16 91 -51z"/>
</g>
</svg>
