<?xml version="1.0" standalone="no"?>
<!DOCTYPE svg PUBLIC "-//W3C//DTD SVG 20010904//EN"
 "http://www.w3.org/TR/2001/REC-SVG-20010904/DTD/svg10.dtd">
<svg version="1.0" xmlns="http://www.w3.org/2000/svg"
 viewBox="0 0 2600.000000 2600.000000"
 preserveAspectRatio="xMidYMid meet">
<metadata>
Created by potrace 1.15, written by Peter Selinger 2001-2017
</metadata>
<g transform="translate(0.000000,2600.000000) scale(0.100000,-0.100000)"
fill="#339900" stroke="none">
<path d="M12344 21185 c-402 -52 -805 -180 -1223 -389 -227 -114 -503 -280
-679 -408 l-63 -46 -115 49 c-548 233 -1122 289 -1659 162 -355 -83 -687 -244
-995 -481 -106 -82 -374 -349 -464 -462 -255 -321 -449 -705 -540 -1065 -47
-186 -60 -288 -59 -480 0 -213 14 -337 118 -1075 190 -1340 245 -2023 232
-2850 -15 -884 -104 -1527 -312 -2240 -114 -390 -168 -655 -200 -971 -89 -883
80 -1808 479 -2634 598 -1237 1641 -2154 2926 -2573 416 -136 835 -214 1305
-242 227 -13 3043 -13 3270 0 1673 100 3107 947 3974 2350 567 917 830 1998
740 3040 -28 320 -81 591 -195 989 -233 815 -324 1506 -324 2451 0 792 56
1435 231 2665 81 570 104 757 119 952 63 824 -496 1813 -1310 2318 -275 170
-635 301 -960 350 -229 35 -550 30 -795 -11 -208 -35 -476 -115 -666 -198
l-97 -43 -138 94 c-618 421 -1252 679 -1840 748 -161 19 -613 19 -760 0z m804
-1169 c478 -103 968 -361 1488 -785 221 -180 454 -197 709 -50 139 81 339 174
456 213 300 99 601 108 876 25 102 -31 296 -130 402 -206 306 -219 573 -601
662 -949 43 -167 37 -243 -96 -1184 -181 -1282 -235 -1920 -235 -2770 0 -1058
104 -1844 365 -2755 110 -385 147 -587 165 -914 17 -320 -8 -641 -76 -961
-211 -993 -833 -1906 -1664 -2444 -457 -296 -966 -485 -1527 -565 -201 -29
-333 -37 -333 -21 0 7 20 117 45 244 182 922 287 1785 337 2761 15 312 16
1183 0 1490 -74 1424 -300 2677 -701 3893 -289 873 -688 1732 -1086 2337 -75
114 -636 839 -1561 2017 l-124 157 92 57 c300 185 602 319 881 390 181 46 261
53 542 50 237 -3 271 -6 383 -30z m-3836 -547 c200 -22 416 -90 638 -203 l105
-53 813 -1039 c446 -571 812 -1039 812 -1040 0 -1 -45 -98 -101 -215 -1006
-2128 -1478 -4540 -1314 -6712 89 -1177 350 -2300 780 -3357 37 -91 71 -176
76 -189 l10 -24 -103 7 c-279 19 -650 94 -928 186 -345 116 -716 307 -1002
516 -694 507 -1218 1273 -1452 2119 -104 376 -151 817 -127 1194 20 326 55
516 167 906 215 756 315 1385 355 2230 13 275 7 1017 -11 1295 -39 622 -94
1126 -220 2015 -113 795 -129 947 -110 1070 46 308 284 707 563 945 321 275
667 390 1049 349z m3183 -3694 c319 -703 569 -1459 749 -2260 166 -741 262
-1431 317 -2285 17 -268 23 -1141 10 -1455 -41 -981 -153 -1884 -356 -2870
-30 -148 -55 -273 -55 -277 0 -5 -170 -8 -378 -8 l-379 0 -66 138 c-616 1287
-937 2755 -937 4292 0 1534 317 3143 922 4673 49 126 91 227 93 225 2 -2 38
-79 80 -173z"/>
</g>
</svg>
